<svg xmlns="http://www.w3.org/2000/svg" width="38" height="38" viewBox="0 0 38 38" fill="none"><circle cx="19.4609" cy="18.7012" r="18.5" fill="#DFE3FF"/><rect x="11" y="11" width="16" height="16" rx="8" fill="#40196D"/><path d="M16.3993 22.3513H21.6007V21.252H18.1599V21.2073C18.5353 20.7962 18.7408 20.4745 18.7408 19.9293C18.7408 19.125 18.2761 18.4636 18.2761 17.7755C18.2761 17.0963 18.7944 16.7209 19.6256 16.7209C20.135 16.7209 20.5461 16.8818 20.8857 17.2839L21.6007 16.569C21.1092 15.9702 20.421 15.6484 19.5005 15.6484C18.0437 15.6484 17.007 16.4438 17.007 17.7129C17.007 18.41 17.579 19.1875 17.579 19.9204C17.579 20.6532 17.0875 21.2163 16.3993 21.5559V22.3513ZM16.4261 19.5093H20.6087V18.6871H17.1143L16.4261 18.7318V19.5093Z" fill="#DFE3FF"/></svg>