<svg xmlns="http://www.w3.org/2000/svg" version="1.1" xmlns:xlink="http://www.w3.org/1999/xlink" xmlns:svgjs="http://svgjs.com/svgjs" width="1440" height="560" preserveAspectRatio="none" viewBox="0 0 1440 560">
    <g mask="url(&quot;#SvgjsMask1000&quot;)" fill="none">
        <rect width="1440" height="560" x="0" y="0" fill="#0e2a47"></rect>
        <path d="M780 488L779 126" stroke-width="10" stroke="url(#SvgjsLinearGradient1001)" stroke-linecap="round" class="Up"></path>
        <path d="M1202 397L1201 181" stroke-width="10" stroke="url(#SvgjsLinearGradient1001)" stroke-linecap="round" class="Up"></path>
        <path d="M776 142L775 -51" stroke-width="10" stroke="url(#SvgjsLinearGradient1002)" stroke-linecap="round" class="Down"></path>
        <path d="M721 99L720 -105" stroke-width="6" stroke="url(#SvgjsLinearGradient1001)" stroke-linecap="round" class="Up"></path>
        <path d="M1072 163L1071 -15" stroke-width="6" stroke="url(#SvgjsLinearGradient1002)" stroke-linecap="round" class="Down"></path>
        <path d="M509 298L508 131" stroke-width="10" stroke="url(#SvgjsLinearGradient1001)" stroke-linecap="round" class="Up"></path>
        <path d="M345 213L344 -199" stroke-width="10" stroke="url(#SvgjsLinearGradient1002)" stroke-linecap="round" class="Down"></path>
        <path d="M265 351L264 122" stroke-width="8" stroke="url(#SvgjsLinearGradient1002)" stroke-linecap="round" class="Down"></path>
        <path d="M520 135L519 -152" stroke-width="8" stroke="url(#SvgjsLinearGradient1001)" stroke-linecap="round" class="Up"></path>
        <path d="M133 496L132 195" stroke-width="10" stroke="url(#SvgjsLinearGradient1001)" stroke-linecap="round" class="Up"></path>
        <path d="M1326 518L1325 858" stroke-width="6" stroke="url(#SvgjsLinearGradient1002)" stroke-linecap="round" class="Down"></path>
        <path d="M10 255L9 -45" stroke-width="8" stroke="url(#SvgjsLinearGradient1002)" stroke-linecap="round" class="Down"></path>
        <path d="M538 457L537 657" stroke-width="10" stroke="url(#SvgjsLinearGradient1002)" stroke-linecap="round" class="Down"></path>
        <path d="M398 417L397 56" stroke-width="6" stroke="url(#SvgjsLinearGradient1002)" stroke-linecap="round" class="Down"></path>
        <path d="M400 334L399 80" stroke-width="10" stroke="url(#SvgjsLinearGradient1001)" stroke-linecap="round" class="Up"></path>
        <path d="M588 144L587 542" stroke-width="6" stroke="url(#SvgjsLinearGradient1002)" stroke-linecap="round" class="Down"></path>
        <path d="M708 363L707 108" stroke-width="10" stroke="url(#SvgjsLinearGradient1002)" stroke-linecap="round" class="Down"></path>
        <path d="M493 341L492 759" stroke-width="10" stroke="url(#SvgjsLinearGradient1001)" stroke-linecap="round" class="Up"></path>
        <path d="M1214 186L1213 583" stroke-width="10" stroke="url(#SvgjsLinearGradient1001)" stroke-linecap="round" class="Up"></path>
        <path d="M1124 533L1123 223" stroke-width="8" stroke="url(#SvgjsLinearGradient1001)" stroke-linecap="round" class="Up"></path>
        <path d="M549 336L548 45" stroke-width="8" stroke="url(#SvgjsLinearGradient1002)" stroke-linecap="round" class="Down"></path>
        <path d="M609 484L608 877" stroke-width="8" stroke="url(#SvgjsLinearGradient1001)" stroke-linecap="round" class="Up"></path>
        <path d="M24 393L23 754" stroke-width="10" stroke="url(#SvgjsLinearGradient1002)" stroke-linecap="round" class="Down"></path>
        <path d="M547 74L546 368" stroke-width="6" stroke="url(#SvgjsLinearGradient1002)" stroke-linecap="round" class="Down"></path>
        <path d="M972 135L971 314" stroke-width="8" stroke="url(#SvgjsLinearGradient1002)" stroke-linecap="round" class="Down"></path>
        <path d="M1168 102L1167 399" stroke-width="6" stroke="url(#SvgjsLinearGradient1002)" stroke-linecap="round" class="Down"></path>
        <path d="M511 407L510 776" stroke-width="6" stroke="url(#SvgjsLinearGradient1002)" stroke-linecap="round" class="Down"></path>
        <path d="M959 239L958 442" stroke-width="8" stroke="url(#SvgjsLinearGradient1002)" stroke-linecap="round" class="Down"></path>
        <path d="M372 432L371 68" stroke-width="6" stroke="url(#SvgjsLinearGradient1002)" stroke-linecap="round" class="Down"></path>
        <path d="M739 216L738 -92" stroke-width="6" stroke="url(#SvgjsLinearGradient1001)" stroke-linecap="round" class="Up"></path>
        <path d="M1322 331L1321 687" stroke-width="10" stroke="url(#SvgjsLinearGradient1002)" stroke-linecap="round" class="Down"></path>
        <path d="M637 425L636 658" stroke-width="10" stroke="url(#SvgjsLinearGradient1002)" stroke-linecap="round" class="Down"></path>
        <path d="M1382 174L1381 -143" stroke-width="8" stroke="url(#SvgjsLinearGradient1001)" stroke-linecap="round" class="Up"></path>
        <path d="M1294 242L1293 -80" stroke-width="6" stroke="url(#SvgjsLinearGradient1001)" stroke-linecap="round" class="Up"></path>
        <path d="M562 541L561 880" stroke-width="8" stroke="url(#SvgjsLinearGradient1002)" stroke-linecap="round" class="Down"></path>
        <path d="M874 83L873 346" stroke-width="6" stroke="url(#SvgjsLinearGradient1001)" stroke-linecap="round" class="Up"></path>
    </g>
    <defs>
        <mask id="SvgjsMask1000">
            <rect width="1440" height="560" fill="#ffffff"></rect>
        </mask>
        <linearGradient x1="0%" y1="100%" x2="0%" y2="0%" id="SvgjsLinearGradient1001">
            <stop stop-color="rgba(28, 83, 142, 0)" offset="0"></stop>
            <stop stop-color="#1c538e" offset="1"></stop>
        </linearGradient>
        <linearGradient x1="0%" y1="0%" x2="0%" y2="100%" id="SvgjsLinearGradient1002">
            <stop stop-color="rgba(28, 83, 142, 0)" offset="0"></stop>
            <stop stop-color="#1c538e" offset="1"></stop>
        </linearGradient>
    </defs>
</svg>