<svg xmlns="http://www.w3.org/2000/svg" viewBox="0 0 356.53997802734375 93" preserveAspectRatio="xMidYMid meet" class="css-116ckqy" id="hhddfgfe"><defs id="SvgjsDefs1893"/><g id="SvgjsG1894" featurekey="symbolContainer" transform="matrix(1,0,0,1,0,0)" fill="#111">    <path xmlns="http://www.w3.org/2000/svg" fill-rule="nonzero" d="             M0,0             H98             V93             H0,0             z             M4,4             v85             h90             v-85             z     "/></g><g id="SvgjsG1895" featurekey="symbolFeature-0" transform="matrix(0.5076990204258801,0,0,0.5076990204258801,17,14)" fill="#111"><path xmlns="http://www.w3.org/2000/svg" d="M59.4,33.9c0.1,0,0.2,0,0.3,0c0,0,2.1-9.8,9-9.8c0.1,0,0.2,0,0.4,0c0,0,4.9,3.8,11.2,3.8c2.5,0,5.3-0.6,8-2.3  c3.1-2,7.5-8.1,10.4-10.4c0,0,0,0,0.1,0c5.4,3.9,10.1,8.6,14,14c0.4-0.1,0.8-0.1,1.2-0.1c1.8,0,3.5,0.7,4.9,2.1  C107.7,12.5,87.3,0,64,0C28.7,0,0,28.7,0,64c0,26.1,15.6,48.5,38,58.5v-5.4c-0.3-0.1-0.6-0.3-0.9-0.4c-0.1-1.6,0-2.9,0.3-4  c-1.5-0.3-2.7-1-3.6-2c-0.4,1.3-0.6,2.8-0.7,4.6c-1.1-0.7-2.3-1.4-3.4-2.2c-2.3-3.1-5.3-7.5-7.6-12.3c-1.3-2.8-7-6.4-8.3-9.2  c-0.8-1.7,1.5-6.8-0.2-7.3c-0.2-0.1-0.4-0.1-0.5-0.1c-0.8,0-1.2,0.5-1.9,0.5c-0.8,0-2.1-0.7-4.7-3.6C4.9,75.8,4,70,4,64  c0-14.8,5.4-28.4,14.4-38.9c0.4,0.1,0.7,0.3,0.9,0.6c2.3,2.2-0.6,9.5-0.2,12.6c0.3,2.9,4.1,8.7,2.9,11.4c-2,4.6-5.6,2.9-10.7,16.3  c-0.3,0.8-1.2,1.5-1.9,2c-0.8,0.6-1.7,1.2-2.6,1.8c-0.5,0.3-1.2,0.8-1.4,1.4c-0.3,1-0.2,2.4,0.1,3.4c0.3,1.1,0.9,2.1,1.5,3.1  c0.9,1.4,2.2,2.7,3.5,3.8c0.7,0.7,1.4,1.1,2.4,1.1c1.1,0,2.2-0.5,3.3-0.5c3.8,0,9.4,4.1,12.3,7.9c1.4,1.8,6.2,2.1,9,3.3l2.7-5.4  c-3-4.2-3.6-12.3,3.8-19.3c0,0,9.7-4.1,13.8-4.1c0.8,0,1.3,0.1,1.6,0.5c1.1,1.5-0.6,1.9-0.3,2.5c1.1,1.8,3.2,0.2,7.7,3.3  c0,0,0,0,0.1,0c0.3,0,0.5-1.8,0.5-1.8s1.1-0.7,1.6-0.7c0,0,0,0,0,0c0.2,0,0.6,0.2,0.9,0.4l3.6-7.3c-0.6-0.7-1.1-1.8-1.3-3.3l-1.6,4  c0,0-3.5-7.8-8.4-8.2c-0.2,0-0.4,0-0.7,0c-5.7,0-7.1,6.7-10.1,7.9c-1.2,0.5-2.2,0.6-3,0.6c-3.8,0-4-4.2-2.4-6.1  c0.9-1.1,4.9,0,5.5-1.3c1.5-2.9-2-4.6-2-4.6s8.8-6.2,12.4-6.2c0.1,0,0.3,0,0.4,0l5.7-1.1c0,0,0.7-5.6,3.1-5.6c0,0-6.6,0-2-6.2  c0,0-0.4-0.2-1-0.2c-1.2,0-3,0.8-2.5,6.2c0.1,1.4-1.2,5.7-2.3,5.7c-0.1,0-0.3-0.1-0.4-0.2c-2-2.2-1.2-3.3-2.2-3.8  c-0.1,0-0.1,0-0.2,0c-0.5,0-0.8,0.8-1.6,0.8c-0.5,0-1-0.3-1.8-1.1C55.9,37.7,55.5,33.9,59.4,33.9z M61.4,57.9c0.1,0,0.2,0,0.3,0  c1.5,0.1,3.9,3.2,5.1,5.8l0.4,0.9c-0.5,0.2-1.1,0.5-1.8,0.9c-0.6-0.2-1.2-0.4-1.8-0.6c-0.2-1.1-0.8-2-1.1-2.3  c-0.7-0.9-2.1-2-4.6-2.1C59.4,58.8,60.2,57.9,61.4,57.9z M28.8,15.8c-0.2,0-0.3,0-0.5,0c5.7-4.3,12.3-7.5,19.4-9.6  c1.4,0.1,3,0.8,4.3,2.6c0.4,0.5-5,3.2-4,8c0,0-0.1,2.4-1.8,2.8c0,0-1.8,0.2-1.8,0.7c0,1.2,3.3,1.3,1,4.7c-1.2,1.8-3.4,2.2-4.5,2.9  c-0.6,0.3-1.3,1.4-1.8,1.8c-1.9,1.5-6,2.8-6.1,7.3c0,0-0.4,1.4-1.3,1.4c-0.4,0-0.9-0.2-1.5-0.9c0,0-3.5-7.4,0-8.3c0,0,0.1,0,0.1,0  c0.4,0,1.4-0.7,0.5-8.5c0,0-0.2-1.3-1.5-1.3c-0.5,0-1.1,0.2-1.9,0.7C26.1,19.7,26,16.7,28.8,15.8z M52.8,33.9  c-1.1,2.5-0.6,5.6,1.1,7.5c0.2,0.2,0.6,0.6,1.1,1c-3.2,1.6-13.5,8.8-13.5,8.8l2.9,1.3c-0.6,0.3-1.1,0.7-1.6,1.3  c-1.9,2.4-2.3,6-1,8.7c0.4,0.8,0.9,1.5,1.6,2.1c-1.2,0.5-2.4,1.6-3.3,2.5c-1.4,1.3-2.5,2.8-3.4,4.5c-1.4,2.7-2.4,5.6-2.5,8.7  c0,1.6,0.2,3.4,0.6,5c0.3,1.2,0.7,2.3,1.3,3.3c-0.4-0.1-0.8-0.2-1.2-0.3c-1-0.2-2.6-0.6-3.2-0.9c-3.5-4.5-10-9.2-15.3-9.2  c-0.6,0-1.1,0.1-1.6,0.2c-0.7,0.1-1.1,0.2-1.4,0.2c-3-2.7-3.8-4.6-3.9-5.6c3.1-2,5.1-3.9,5.7-5.6c2.9-7.6,5.1-9.6,6.9-11.2  c1.3-1.2,2.7-2.5,3.8-5c1.4-3.2-0.2-6.9-1.5-10.2c-0.5-1.1-1.1-2.6-1.1-3.2c-0.1-0.6,0.3-2.4,0.5-3.6c0.3-1.6,0.6-3.2,0.6-4.9  c0.1-1.4,0-2.7-0.5-4c-0.1-0.2-1.7-3.2-2-2.9c0.4-0.4,0.8-0.8,1.3-1.2c0.5,1.1,1.2,2,2.2,2.6l1.7,1c0,0.7,0,1.3,0,1.7  c-0.8,0.6-1.4,1.3-1.9,2.3c-0.8,1.6-0.8,3.4-0.5,5.1c0.2,1.6,0.8,3,1.3,4.5c0.7,1.8,2.1,3.4,3.9,4c0.5,0.2,1.1,0.3,1.7,0.3  c2.8,0,4.6-2.2,5.2-4.4l0.1-0.4l0-0.5c0-1.2,0.6-1.7,2.7-3c1-0.6,1.9-1.2,2.7-2.1c0.2-0.2,0.5-0.7,0.7-0.8c0.1-0.1,0.4-0.2,0.5-0.2  c1.3-0.6,3.5-1.5,5.1-3.8c0.9-1.3,1.8-3.3,1.4-5.5c0-0.1,0.8-1,0.9-1.2c0.5-0.8,0.9-1.7,1-2.6c0.1-0.9-0.1-1.7,0-2.6  c0.1-1.1,1.3-2.1,2.1-2.8c3.2-2.9,1.9-5.4,1.3-6.3c-0.2-0.3-0.4-0.5-0.6-0.8C57.5,5.2,60.6,5,63.7,5c11,0,21.6,3,30.7,8.6  c-1.1,1.1-2.2,2.3-3.3,3.6c-1.7,1.9-3.8,4.2-5,5c-1.8,1.2-3.8,1.7-5.9,1.7c-4.8,0-8.7-2.9-8.8-3c-0.9-0.7-1.7-0.8-2.8-0.8  c-6.6,0-10.4,5.6-12.1,10.3C54.8,31,53.5,32.3,52.8,33.9z"/><path xmlns="http://www.w3.org/2000/svg" d="M126,124h-4V61h2.4c3.2,0,4.6-2.2,2.9-4.8L116.9,35c-0.8-1.3-1.9-2-2.9-2s-2.1,0.7-2.9,2l-10.4,21.1  c-1.6,2.7-0.3,4.8,2.9,4.8h2.4v63H90V85h2.4c3.2,0,4.6-2.2,2.9-4.8L84.9,59c-0.8-1.3-1.9-2-2.9-2s-2.1,0.7-2.9,2L68.7,80.2  c-1.6,2.7-0.3,4.8,2.9,4.8H74v39H58v-15h2.4c3.2,0,4.6-2.2,2.9-4.8L52.9,83c-0.8-1.3-1.9-2-2.9-2s-2.1,0.7-2.9,2l-10.4,21.1  c-1.6,2.7-0.3,4.8,2.9,4.8H42v15H2c-1.1,0-2,0.9-2,2s0.9,2,2,2h124c1.1,0,2-0.9,2-2S127.1,124,126,124z M54,124h-8v-19h-5.3L50,86.1  l9.3,18.9H54V124z M86,124h-8V81h-5.3L82,62.1L91.3,81H86V124z M118,124h-8V57h-5.3l9.3-18.9l9.3,18.9H118V124z"/></g><g id="SvgjsG1896" featurekey="nameFeature-0" transform="matrix(0.847457627118644,0,0,0.847457627118644,114.8135589260166,9.779662827313958)" fill="#111"><path d="M12.36 13.600000000000001 c4.44 0 7.12 2.52 7.12 7.2 l0 5.04 c0 4.28 -2.64 7.16 -7.12 7.16 l-3.36 0 l0 6.64 c0 0.2 -0.16 0.36 -0.36 0.36 l-4.6 0 c-0.16 0 -0.28 -0.16 -0.28 -0.36 l0 -25.68 c0 -0.2 0.12 -0.36 0.28 -0.36 l8.32 0 z M14.24 24.64 l0 -2.64 c0 -2.76 -1.28 -3.04 -4.08 -3.04 l-1.16 0 l0 8.8 l1.16 0 c2.2 0 4.08 -0.4 4.08 -3.12 z M17.08 25.560000000000002 l0 -5 c0 -4.4 -3.4 -4.76 -5.24 -4.76 l-5.4 0 c-0.08 0 -0.24 0.12 -0.24 0.24 l0 21.52 c0 0.28 0.48 0.28 0.48 0 l0 -6.8 l4.8 0 c3.52 0 5.6 -1.24 5.6 -5.2 z M6.68 16.32 l5.16 0 c4.44 0 4.72 2.92 4.72 4.24 l0 5 c0 4.08 -2.56 4.64 -5.08 4.64 l-4.8 0 l0 -13.88 z M25.439999999999998 40 c-0.2 0 -0.32 -0.16 -0.32 -0.36 l0 -25.68 c0 -0.2 0.12 -0.36 0.32 -0.36 l13.6 0 c0.2 0 0.36 0.16 0.36 0.36 l0 4.28 c0 0.2 -0.16 0.36 -0.36 0.36 l-8.64 0 l0 5.44 l6.72 0 c0.2 0 0.32 0.16 0.32 0.36 l0 4.36 c0 0.2 -0.12 0.36 -0.32 0.36 l-6.72 0 l0 5.88 l8.64 0 c0.2 0 0.36 0.16 0.36 0.36 l0 4.28 c0 0.2 -0.16 0.36 -0.36 0.36 l-13.6 0 z M27.439999999999998 16.12 l0 21.28 c0 0.24 0.16 0.32 0.32 0.32 l9.2 0 c0.36 0 0.28 -0.48 0 -0.48 l-9 0 l0 -10.44 l7.36 0 c0.24 0 0.24 -0.56 0 -0.56 l-7.36 0 l0 -9.92 l9 0 c0.28 0 0.36 -0.52 0 -0.52 l-9.2 0 c-0.16 0 -0.32 0.12 -0.32 0.32 z M54.839999999999996 13.239999999999998 c3.44 0 5.84 0.76 7.36 2.4 c1.2 1.32 1.76 3.2 1.76 5.88 l0 10.52 c0 2.76 -0.56 4.68 -1.76 5.96 c-1.56 1.6 -3.92 2.4 -7.36 2.4 c-3.56 0 -5.88 -0.8 -7.4 -2.4 c-1.16 -1.28 -1.8 -3.2 -1.8 -5.96 l0 -10.52 c0 -2.68 0.64 -4.56 1.8 -5.92 c1.56 -1.6 3.92 -2.36 7.4 -2.36 z M58.64 30.84 l0 -8 c0 -3.52 -1.88 -4.24 -3.6 -4.24 l-0.48 0 c-2.56 0 -3.56 1.64 -3.56 4.24 l0 8 c0 3.52 1.88 4.28 3.56 4.28 l0.48 0 c2.56 0 3.56 -1.72 3.6 -4.28 z M48.16 21.8 l0 9.92 c0 1.88 0.48 3.44 1.6 4.6 c1.04 1.04 2.64 1.6 4.6 1.6 l1.04 0 c3.76 0 6.2 -2.4 6.2 -6.2 l0 -9.92 c0 -4.08 -2.16 -6.28 -6.2 -6.28 l-1.04 0 c-4.08 0 -6.2 2.2 -6.2 6.28 z M55.4 37.4 l-1.04 0 c-1.88 0 -3.28 -0.48 -4.28 -1.48 s-1.52 -2.4 -1.52 -4.2 l0 -9.92 c0 -3.8 2.04 -5.8 5.8 -5.8 l1.04 0 c3.8 0 5.68 1.96 5.68 5.8 l0 9.92 c0 1.68 -0.52 3.2 -1.6 4.24 c-1.04 0.88 -2.44 1.44 -4.08 1.44 z M79.56 13.600000000000001 c4.44 0 7.12 2.52 7.12 7.2 l0 5.04 c0 4.28 -2.64 7.16 -7.12 7.16 l-3.36 0 l0 6.64 c0 0.2 -0.16 0.36 -0.36 0.36 l-4.6 0 c-0.16 0 -0.28 -0.16 -0.28 -0.36 l0 -25.68 c0 -0.2 0.12 -0.36 0.28 -0.36 l8.32 0 z M81.44 24.64 l0 -2.64 c0 -2.76 -1.28 -3.04 -4.08 -3.04 l-1.16 0 l0 8.8 l1.16 0 c2.2 0 4.08 -0.4 4.08 -3.12 z M84.28 25.560000000000002 l0 -5 c0 -4.4 -3.4 -4.76 -5.24 -4.76 l-5.4 0 c-0.08 0 -0.24 0.12 -0.24 0.24 l0 21.52 c0 0.28 0.48 0.28 0.48 0 l0 -6.8 l4.8 0 c3.52 0 5.6 -1.24 5.6 -5.2 z M73.88 16.32 l5.16 0 c4.44 0 4.72 2.92 4.72 4.24 l0 5 c0 4.08 -2.56 4.64 -5.08 4.64 l-4.8 0 l0 -13.88 z M97.2 13.600000000000001 c0.2 0 0.36 0.16 0.36 0.36 l0 21 l8.64 0 c0.2 0 0.36 0.16 0.36 0.36 l0 4.32 c0 0.2 -0.16 0.36 -0.36 0.36 l-13.56 0 c-0.2 0 -0.32 -0.16 -0.32 -0.36 l0 -25.68 c0 -0.2 0.12 -0.36 0.32 -0.36 l4.56 0 z M94.72 16.04 l0 21.52 c0 0.08 0.08 0.2 0.24 0.2 l9.24 0 c0.32 0 0.32 -0.52 0 -0.52 l-9.04 0 l0 -21.2 c0 -0.28 -0.44 -0.32 -0.44 0 z M112.48 40 c-0.2 0 -0.32 -0.16 -0.32 -0.36 l0 -25.68 c0 -0.2 0.12 -0.36 0.32 -0.36 l13.6 0 c0.2 0 0.36 0.16 0.36 0.36 l0 4.28 c0 0.2 -0.16 0.36 -0.36 0.36 l-8.64 0 l0 5.44 l6.72 0 c0.2 0 0.32 0.16 0.32 0.36 l0 4.36 c0 0.2 -0.12 0.36 -0.32 0.36 l-6.72 0 l0 5.88 l8.64 0 c0.2 0 0.36 0.16 0.36 0.36 l0 4.28 c0 0.2 -0.16 0.36 -0.36 0.36 l-13.6 0 z M114.48 16.12 l0 21.28 c0 0.24 0.16 0.32 0.32 0.32 l9.2 0 c0.36 0 0.28 -0.48 0 -0.48 l-9 0 l0 -10.44 l7.36 0 c0.24 0 0.24 -0.56 0 -0.56 l-7.36 0 l0 -9.92 l9 0 c0.28 0 0.36 -0.52 0 -0.52 l-9.2 0 c-0.16 0 -0.32 0.12 -0.32 0.32 z M137.32 18.6 l-5.68 0 c-0.2 0 -0.36 -0.16 -0.36 -0.36 l0 -4.28 c0 -0.2 0.16 -0.36 0.36 -0.36 l16.68 0 c0.2 0 0.36 0.16 0.36 0.36 l0 4.28 c0 0.2 -0.16 0.36 -0.36 0.36 l-5.68 0 l0 21.04 c0 0.2 -0.16 0.36 -0.36 0.36 l-4.6 0 c-0.2 0 -0.36 -0.16 -0.36 -0.36 l0 -21.04 z M145.88 15.8 l-12.08 0 c-0.28 0 -0.28 0.52 0 0.52 l5.92 0 l0 21.2 c0 0.28 0.52 0.28 0.52 0 l0 -21.2 l5.64 0 c0.4 0 0.36 -0.52 0 -0.52 z M169.28 29.560000000000002 c-0.56 1.16 -1.36 2.04 -2.48 2.56 l3.36 7.4 c0.12 0.24 -0.04 0.48 -0.28 0.48 l-4.92 0 c-0.16 0 -0.24 -0.08 -0.28 -0.2 l-3.12 -6.8 l-2.04 0 l0 6.64 c0 0.2 -0.16 0.36 -0.36 0.36 l-4.6 0 c-0.16 0 -0.28 -0.16 -0.28 -0.36 l0 -25.68 c0 -0.2 0.12 -0.36 0.28 -0.36 l8.32 0 c4.44 0 7.12 2.52 7.12 7.2 l0 5.04 c0 1.4 -0.24 2.72 -0.72 3.72 z M164.76000000000002 24.6 l0 -2.6 c0 -2.8 -1.04 -3.08 -4.08 -3.08 l-1.16 0 l0 8.84 l1.16 0 c2.52 0 4 -0.04 4.08 -3.16 z M157.20000000000002 37.56 l0 -6.84 l5.76 0 l3.36 6.92 c0.08 0.2 0.56 0.12 0.44 -0.24 l-3.36 -6.8 c3.12 -0.44 4.2 -2.08 4.2 -5.04 l0 -5 c0 -4.4 -4 -4.76 -5.24 -4.76 l-5.4 0 c-0.08 0 -0.24 0.12 -0.24 0.24 l0 21.52 c0 0.28 0.48 0.28 0.48 0 z M167.12 20.56 l0 5 c0 4.08 -2.6 4.64 -5.12 4.64 l-4.8 0 l0 -13.88 l5.16 0 c4.32 0 4.76 2.92 4.76 4.24 z M189.8 30.759999999999998 l0 -16.8 c0 -0.2 0.16 -0.36 0.36 -0.36 l4.56 0 c0.2 0 0.36 0.16 0.36 0.36 l0 18.08 c0 5.76 -3.16 8.36 -9.12 8.36 c-5.64 0 -9.16 -2.24 -9.16 -8.36 l0 -18.08 c0 -0.2 0.16 -0.36 0.36 -0.36 l4.6 0 c0.2 0 0.36 0.16 0.36 0.36 l0 16.8 c0 3.48 1.96 4.24 3.6 4.24 l0.48 0 c2.48 0 3.6 -1.68 3.6 -4.24 z M179.28000000000003 16.16 l0 15.56 c0 3.6 2.44 6.2 6.24 6.2 l1 0 c3.8 0 6.28 -2.72 6.28 -6.2 l0 -15.56 c0 -0.36 -0.48 -0.4 -0.48 0 l0 15.56 c0 3.28 -2.36 5.68 -5.8 5.68 l-1 0 c-3.36 0 -5.76 -2.16 -5.76 -5.68 l0 -15.56 c0 -0.36 -0.48 -0.36 -0.48 0 z M211.28 23.8 c3.04 1.44 7 3.72 7 7.84 c0 1.2 -0.2 3.52 -1.52 5.48 c-1.48 2.2 -3.8 3.28 -7 3.28 c-3.4 0 -7.36 -1.64 -8.6 -5.36 c-0.04 -0.12 0 -0.24 0.12 -0.32 l3.68 -3.16 c0.16 -0.12 0.4 -0.12 0.52 0.08 c0.08 0.2 0.24 0.52 0.44 0.92 c0.6 1.24 2.04 2.48 3.64 2.48 c1.24 0 2.92 -0.68 2.92 -2.6 c0 -1.84 -2.52 -2.88 -4.08 -3.48 c-1.8 -0.72 -3.64 -1.64 -5.2 -3 c-1.64 -1.52 -2.44 -3.2 -2.44 -5.2 c0 -5 4.6 -7.52 8.96 -7.52 c3.44 0 6 1.8 7.68 5.36 c0.08 0.16 0 0.36 -0.12 0.44 l-3.56 2.48 c-0.16 0.08 -0.24 0.08 -0.4 -0.12 c-1.36 -1.96 -2.56 -2.88 -4.16 -2.88 c-0.84 0 -2.8 0.32 -2.8 1.8 c0 1.8 3.32 2.72 4.92 3.48 z M204 34.84 c1 2 3.76 3.16 6 3.16 c2.92 0 5.28 -2 5.6 -5.04 c0.4 -3.72 -2.52 -5.32 -5.4 -6.76 l-1.28 -0.56 c-2.96 -1.32 -5.12 -2.32 -5.12 -5.08 c0 -3.04 2.8 -4.44 5.56 -4.44 c2.52 0 3.84 1.48 4.52 2.4 c0.24 0.32 0.64 0.04 0.4 -0.28 c-0.68 -0.84 -2.12 -2.6 -4.92 -2.6 c-3.16 0 -6.04 1.56 -6.04 4.92 c0 3 2.4 4.16 5.44 5.56 l1.24 0.6 c3.96 1.88 5.4 3.64 5.08 6.2 c-0.6 4.08 -3.72 4.6 -5.08 4.6 c-3 0 -5 -1.8 -5.6 -2.92 c-0.2 -0.2 -0.48 0 -0.4 0.24 z M228.4 18.6 l-5.68 0 c-0.2 0 -0.36 -0.16 -0.36 -0.36 l0 -4.28 c0 -0.2 0.16 -0.36 0.36 -0.36 l16.68 0 c0.2 0 0.36 0.16 0.36 0.36 l0 4.28 c0 0.2 -0.16 0.36 -0.36 0.36 l-5.68 0 l0 21.04 c0 0.2 -0.16 0.36 -0.36 0.36 l-4.6 0 c-0.2 0 -0.36 -0.16 -0.36 -0.36 l0 -21.04 z M236.96 15.8 l-12.08 0 c-0.28 0 -0.28 0.52 0 0.52 l5.92 0 l0 21.2 c0 0.28 0.52 0.28 0.52 0 l0 -21.2 l5.64 0 c0.4 0 0.36 -0.52 0 -0.52 z"/></g><g id="SvgjsG1897" featurekey="sloganFeature-0" transform="matrix(1,0,0,1,117.6199996471405,53.040000438690186)" fill="#111"><path d="M6.32 17.22 l0 -10.22 l-1.22 0 c-1.18 0 -1.94 0.1 -2.28 0.28 c-0.22 0.1 -0.4 0.26 -0.62 0.5 s-0.32 0.38 -0.58 0.78 c-0.26 0.42 -0.36 0.56 -0.7 1.14 c-0.18 0.3 -0.32 0.52 -0.42 0.7 l-0.12 -0.04 l0.92 -4.4 l0.16 0.02 l0.04 0.34 c0.02 0.34 0.14 0.4 0.6 0.4 l10.62 0 c0.58 0 0.64 -0.08 0.78 -0.46 l0.1 -0.3 l0.16 0 l0.08 4.42 l-0.12 0.02 c-0.26 -0.7 -0.46 -1.22 -0.6 -1.52 s-0.3 -0.62 -0.48 -0.94 c-0.2 -0.32 -0.4 -0.54 -0.6 -0.64 c-0.22 -0.14 -0.5 -0.22 -0.8 -0.26 c-0.32 -0.02 -0.86 -0.04 -1.64 -0.04 l-1.44 0 l0 10.22 c0 1 0.02 1.66 0.08 1.96 c0.1 0.46 0.24 0.54 1.04 0.6 l1.22 0.06 l0 0.16 l-6.52 0 l0 -0.16 l1.22 -0.06 c0.8 -0.06 0.94 -0.14 1.04 -0.6 c0.06 -0.3 0.08 -0.96 0.08 -1.96 z M26.259999999999998 17.22 l0 -3.94 l-7.4 0 l0 3.94 c0 1 0.02 1.66 0.08 1.96 c0.08 0.42 0.24 0.54 1.04 0.6 l0.92 0.06 l0 0.16 l-5.82 0 l0 -0.16 l0.82 -0.06 c0.8 -0.06 0.94 -0.14 1.04 -0.6 c0.06 -0.3 0.08 -0.96 0.08 -1.96 l0 -7.8 c0 -1 -0.02 -1.66 -0.08 -1.96 c-0.1 -0.46 -0.22 -0.54 -1.04 -0.6 l-0.82 -0.06 l0 -0.16 l5.82 0 l0 0.16 l-0.92 0.06 c-0.82 0.06 -0.96 0.14 -1.04 0.6 c-0.06 0.3 -0.08 0.96 -0.08 1.96 l0 3.46 l7.4 0 l0 -3.46 c0 -1 -0.02 -1.66 -0.08 -1.96 c-0.1 -0.46 -0.22 -0.54 -1.04 -0.6 l-0.92 -0.06 l0 -0.16 l5.82 0 l0 0.16 l-0.82 0.06 c-0.82 0.06 -0.96 0.14 -1.04 0.6 c-0.06 0.3 -0.08 0.96 -0.08 1.96 l0 7.8 c0 1 0.02 1.66 0.08 1.96 c0.08 0.42 0.24 0.54 1.04 0.6 l0.82 0.06 l0 0.16 l-5.82 0 l0 -0.16 l0.92 -0.06 c0.8 -0.06 0.94 -0.14 1.04 -0.6 c0.06 -0.3 0.08 -0.96 0.08 -1.96 z M31.240000000000002 6.800000000000001 l0 -0.16 l10.38 0 l-0.06 3.26 l-0.14 0.04 c-0.08 -0.22 -0.24 -0.74 -0.3 -0.9 s-0.16 -0.54 -0.22 -0.68 c-0.16 -0.38 -0.3 -0.66 -0.5 -0.86 c-0.32 -0.32 -1.18 -0.48 -1.82 -0.5 c-0.32 -0.02 -0.8 -0.02 -1.42 -0.04 l-2.14 -0.04 l0 6.1 l1.76 -0.06 c1.04 -0.04 1.7 -0.16 2 -0.38 c0.34 -0.22 0.58 -0.68 0.74 -1.38 l0.12 -0.58 l0.16 0.04 l-0.06 4.96 l-0.18 0.04 l-0.12 -0.58 c-0.18 -0.76 -0.42 -1.22 -0.68 -1.4 c-0.3 -0.18 -0.92 -0.3 -1.9 -0.34 l-1.84 -0.04 l0 3.92 c0 0.82 0.02 1.46 0.08 1.88 c0.08 0.5 0.28 0.66 1.16 0.64 l1.88 -0.06 c1.44 -0.06 2.4 -0.34 2.9 -0.88 c0.32 -0.36 0.76 -1.08 1.32 -2.14 l0.14 0.04 l-0.74 3.3 l-10.52 0 l0 -0.16 l0.82 -0.06 c0.8 -0.06 0.94 -0.14 1.04 -0.6 c0.06 -0.3 0.08 -0.96 0.08 -1.96 l0 -7.8 c0 -1 -0.02 -1.66 -0.08 -1.96 c-0.1 -0.46 -0.22 -0.54 -1.04 -0.6 z M54.56 7.02 c0.02 0.1 0.1 1.14 0.28 3.16 l-0.16 0.04 c-0.46 -1.46 -0.92 -2.4 -1.36 -2.84 c-0.46 -0.44 -1.02 -0.66 -1.7 -0.66 c-1.68 0 -2.54 0.78 -2.54 1.9 c0 0.6 0.2 1.14 0.58 1.6 c0.38 0.48 1.1 1.14 2.2 1.96 c0.66 0.5 1.12 0.86 1.42 1.1 c0.3 0.26 0.62 0.56 1 0.94 c0.72 0.76 0.94 1.46 0.94 2.34 c0 1.06 -0.4 1.94 -1.18 2.64 s-1.82 1.04 -3.12 1.04 c-1 0 -2.16 -0.28 -3.5 -0.86 c-0.22 -1.16 -0.34 -2.36 -0.38 -3.6 l0.14 -0.06 c0.56 1.66 1.1 2.78 1.6 3.34 c0.5 0.58 1.2 0.86 2.1 0.86 c1.84 0 2.84 -0.88 2.84 -2.3 c0 -0.6 -0.2 -1.14 -0.58 -1.64 c-0.4 -0.5 -1.24 -1.22 -2.52 -2.2 c-1.06 -0.82 -1.76 -1.4 -2.08 -1.74 c-0.62 -0.7 -0.94 -1.48 -0.94 -2.3 c0 -0.9 0.38 -1.7 1.12 -2.36 s1.76 -0.98 3.02 -0.98 c1.06 0 2 0.2 2.82 0.62 z  M56.980000000000004 6.800000000000001 l0 -0.16 l10.38 0 l-0.06 3.26 l-0.14 0.04 c-0.08 -0.22 -0.24 -0.74 -0.3 -0.9 s-0.16 -0.54 -0.22 -0.68 c-0.16 -0.38 -0.3 -0.66 -0.5 -0.86 c-0.32 -0.32 -1.18 -0.48 -1.82 -0.5 c-0.32 -0.02 -0.8 -0.02 -1.42 -0.04 l-2.14 -0.04 l0 6.1 l1.76 -0.06 c1.04 -0.04 1.7 -0.16 2 -0.38 c0.34 -0.22 0.58 -0.68 0.74 -1.38 l0.12 -0.58 l0.16 0.04 l-0.06 4.96 l-0.18 0.04 l-0.12 -0.58 c-0.18 -0.76 -0.42 -1.22 -0.68 -1.4 c-0.3 -0.18 -0.92 -0.3 -1.9 -0.34 l-1.84 -0.04 l0 3.92 c0 0.82 0.02 1.46 0.08 1.88 c0.08 0.5 0.28 0.66 1.16 0.64 l1.88 -0.06 c1.44 -0.06 2.4 -0.34 2.9 -0.88 c0.32 -0.36 0.76 -1.08 1.32 -2.14 l0.14 0.04 l-0.74 3.3 l-10.52 0 l0 -0.16 l0.82 -0.06 c0.8 -0.06 0.94 -0.14 1.04 -0.6 c0.06 -0.3 0.08 -0.96 0.08 -1.96 l0 -7.8 c0 -1 -0.02 -1.66 -0.08 -1.96 c-0.1 -0.46 -0.22 -0.54 -1.04 -0.6 z M77.12 6.32 c0.86 0 1.98 0.14 3.34 0.4 c0.66 0.12 0.74 0.1 0.82 -0.14 l0.04 -0.22 l0.18 0 c0.22 1.62 0.36 3.12 0.4 4.5 l-0.16 0.02 c-0.46 -1.42 -1.04 -2.52 -1.76 -3.26 c-0.68 -0.66 -1.66 -1 -2.96 -1 c-1.58 0 -2.86 0.52 -3.84 1.56 s-1.48 2.64 -1.48 4.8 c0 1.94 0.52 3.6 1.58 4.96 s2.34 2.04 3.86 2.04 c1.22 0 2.26 -0.44 3.12 -1.3 c0.78 -0.76 1.4 -1.94 1.9 -3.52 l0.16 0.08 c-0.04 0.66 -0.14 1.46 -0.28 2.4 c-0.16 0.94 -0.28 1.44 -0.34 1.46 c-1.78 0.86 -3.04 1.18 -4.8 1.18 c-2.58 0 -4.86 -1.06 -6.24 -3.16 c-0.7 -1.06 -1.04 -2.28 -1.04 -3.66 c0 -1.98 0.72 -3.66 2.14 -5.06 c1.42 -1.38 3.22 -2.08 5.36 -2.08 z M90.80000000000001 20.32 c-1.54 0 -2.8 -0.4 -3.78 -1.22 c-0.98 -0.8 -1.46 -2 -1.46 -3.6 l0 -6.08 c0 -1 -0.02 -1.66 -0.08 -1.96 c-0.1 -0.46 -0.22 -0.54 -1.04 -0.6 l-0.82 -0.06 l0 -0.16 l6.04 0 l0 0.16 l-1.14 0.06 c-0.82 0.06 -0.96 0.14 -1.04 0.6 c-0.06 0.3 -0.08 0.96 -0.08 1.96 l0 6.08 c0 2.58 1.58 3.98 4.06 3.98 c1.2 0 2.14 -0.38 2.84 -1.12 s1.04 -1.68 1.04 -2.82 c0 -1.04 0 -1.9 -0.02 -2.6 l-0.06 -3.54 c-0.02 -1.04 -0.1 -1.68 -0.24 -1.92 c-0.16 -0.24 -0.6 -0.44 -1.3 -0.58 l-0.74 -0.14 l0 -0.12 l5.06 0 l0 0.12 l-0.54 0.12 c-0.68 0.14 -1.1 0.34 -1.26 0.6 s-0.26 0.9 -0.28 1.92 l-0.2 6.24 c-0.06 1.42 -0.54 2.56 -1.48 3.4 c-0.94 0.86 -2.1 1.28 -3.48 1.28 z M102.84 13.719999999999999 l-0.48 0 l0 3.5 c0 1 0.02 1.66 0.08 1.96 c0.08 0.42 0.24 0.54 1.04 0.6 l0.92 0.06 l0 0.16 l-5.82 0 l0 -0.16 l0.82 -0.06 c0.8 -0.06 0.94 -0.14 1.04 -0.6 c0.06 -0.3 0.08 -0.96 0.08 -1.96 l0 -7.8 c0 -1 -0.02 -1.66 -0.08 -1.96 c-0.1 -0.5 -0.24 -0.6 -1.14 -0.68 l-0.7 -0.06 l0 -0.16 c1.1 0.02 2.02 0.04 3.08 0.04 c0.52 0.02 0.94 0.02 1.26 0.02 c2.3 0.02 3.98 0.44 4.84 1.12 s1.2 1.42 1.2 2.24 c0 1.32 -0.92 2.34 -2.78 3.08 c0.12 0.18 2.16 3.56 3.46 5.36 c0.44 0.62 0.78 0.98 1.02 1.1 c0.24 0.14 0.78 0.24 1.64 0.34 l0 0.14 l-0.54 0.02 l-1.1 0.06 c-0.6 0.04 -1 0.06 -1.22 0.06 c-0.5 0 -0.88 -0.12 -1.12 -0.36 c-0.26 -0.22 -0.62 -0.72 -1.08 -1.48 l-2.18 -3.58 c-0.34 -0.56 -0.48 -0.78 -0.66 -0.92 s-0.16 -0.1 -0.42 -0.12 c-0.04 0 -1.08 0.04 -1.16 0.04 z M102.42 6.880000000000001 c-0.04 0.5 -0.06 1.24 -0.06 2.24 l0 4.36 c2.96 0.02 4.68 -1.16 4.68 -3.4 c0 -0.9 -0.36 -1.66 -1.06 -2.28 c-0.72 -0.6 -1.9 -0.9 -3.56 -0.92 z M111.92 6.800000000000001 l0 -0.16 l10.38 0 l-0.06 3.26 l-0.14 0.04 c-0.08 -0.22 -0.24 -0.74 -0.3 -0.9 s-0.16 -0.54 -0.22 -0.68 c-0.16 -0.38 -0.3 -0.66 -0.5 -0.86 c-0.32 -0.32 -1.18 -0.48 -1.82 -0.5 c-0.32 -0.02 -0.8 -0.02 -1.42 -0.04 l-2.14 -0.04 l0 6.1 l1.76 -0.06 c1.04 -0.04 1.7 -0.16 2 -0.38 c0.34 -0.22 0.58 -0.68 0.74 -1.38 l0.12 -0.58 l0.16 0.04 l-0.06 4.96 l-0.18 0.04 l-0.12 -0.58 c-0.18 -0.76 -0.42 -1.22 -0.68 -1.4 c-0.3 -0.18 -0.92 -0.3 -1.9 -0.34 l-1.84 -0.04 l0 3.92 c0 0.82 0.02 1.46 0.08 1.88 c0.08 0.5 0.28 0.66 1.16 0.64 l1.88 -0.06 c1.44 -0.06 2.4 -0.34 2.9 -0.88 c0.32 -0.36 0.76 -1.08 1.32 -2.14 l0.14 0.04 l-0.74 3.3 l-10.52 0 l0 -0.16 l0.82 -0.06 c0.8 -0.06 0.94 -0.14 1.04 -0.6 c0.06 -0.3 0.08 -0.96 0.08 -1.96 l0 -7.8 c0 -1 -0.02 -1.66 -0.08 -1.96 c-0.1 -0.46 -0.22 -0.54 -1.04 -0.6 z M131.8 8.66 l3.88 8.9 l3.4 -7.84 c0.48 -1.1 0.8 -2.14 0.94 -3.08 l3.88 0 l0 0.16 l-0.44 0.08 c-0.82 0.14 -1.32 0.4 -1.5 0.74 c-0.2 0.34 -0.28 1 -0.26 1.94 l0.22 7.66 c0.04 1 0.1 1.66 0.18 1.98 c0.1 0.42 0.22 0.5 1.12 0.58 l0.68 0.06 l0 0.16 l-5.42 0 l0 -0.16 l0.5 -0.04 c0.58 -0.06 0.92 -0.18 1.04 -0.4 c0.12 -0.2 0.16 -0.68 0.14 -1.44 l-0.26 -9.16 l-4.86 11.2 l-0.16 0 l-4.94 -11.12 l-0.1 8.44 c0 0.96 0.02 1.26 0.08 1.66 c0.02 0.2 0.1 0.34 0.24 0.4 c0.24 0.16 0.4 0.22 1.04 0.36 l0.66 0.14 l0 0.12 l-4.9 0 l0 -0.12 l0.64 -0.14 c0.7 -0.14 1.12 -0.34 1.28 -0.6 c0.14 -0.24 0.26 -0.88 0.32 -1.9 l0.5 -8.9 c-0.4 -0.9 -0.7 -1.16 -1.64 -1.42 l-0.5 -0.14 l0 -0.14 l3.6 0 c0.1 0.62 0.32 1.28 0.64 2.02 z M152.38 6.32 c1.96 0 3.62 0.62 4.96 1.88 s2.02 2.92 2.02 4.98 c0 1.98 -0.64 3.66 -1.92 5.04 c-1.3 1.4 -2.98 2.1 -5.08 2.1 c-1.96 0 -3.62 -0.64 -4.96 -1.9 s-2.02 -2.9 -2.02 -4.96 c0 -1.98 0.64 -3.66 1.94 -5.06 c1.28 -1.38 2.96 -2.08 5.06 -2.08 z M152.04 6.619999999999999 c-1.34 0 -2.44 0.58 -3.3 1.72 c-0.86 1.16 -1.3 2.72 -1.3 4.7 s0.5 3.64 1.52 4.98 s2.26 2 3.74 2 c1.34 0 2.46 -0.58 3.32 -1.74 c0.86 -1.14 1.28 -2.7 1.28 -4.68 s-0.5 -3.64 -1.52 -4.98 s-2.26 -2 -3.74 -2 z M160.48000000000002 6.640000000000001 l2.9 0 l9.4 10.58 l0.02 -0.02 l-0.16 -7.8 c-0.02 -1.04 -0.12 -1.68 -0.26 -1.92 c-0.16 -0.24 -0.64 -0.44 -1.44 -0.62 l-0.46 -0.1 l0 -0.12 l4.98 0 l0 0.12 l-0.46 0.1 c-0.8 0.18 -1.28 0.38 -1.42 0.62 c-0.16 0.24 -0.26 0.88 -0.28 1.92 l-0.24 10.92 l-0.14 0 l-9.94 -11.42 l0.18 8.34 c0.02 1.04 0.12 1.68 0.28 1.92 c0.14 0.24 0.62 0.44 1.42 0.62 l0.46 0.1 l0 0.12 l-4.98 0 l0 -0.12 l0.46 -0.1 c0.76 -0.16 1.24 -0.38 1.42 -0.64 s0.26 -0.88 0.28 -1.9 l0.18 -8.7 l-0.36 -0.42 c-0.34 -0.4 -0.62 -0.68 -0.82 -0.84 c-0.2 -0.14 -0.48 -0.3 -0.86 -0.44 l-0.16 -0.06 l0 -0.14 z M176.16 6.800000000000001 l0 -0.16 l10.38 0 l-0.06 3.26 l-0.14 0.04 c-0.08 -0.22 -0.24 -0.74 -0.3 -0.9 s-0.16 -0.54 -0.22 -0.68 c-0.16 -0.38 -0.3 -0.66 -0.5 -0.86 c-0.32 -0.32 -1.18 -0.48 -1.82 -0.5 c-0.32 -0.02 -0.8 -0.02 -1.42 -0.04 l-2.14 -0.04 l0 6.1 l1.76 -0.06 c1.04 -0.04 1.7 -0.16 2 -0.38 c0.34 -0.22 0.58 -0.68 0.74 -1.38 l0.12 -0.58 l0.16 0.04 l-0.06 4.96 l-0.18 0.04 l-0.12 -0.58 c-0.18 -0.76 -0.42 -1.22 -0.68 -1.4 c-0.3 -0.18 -0.92 -0.3 -1.9 -0.34 l-1.84 -0.04 l0 3.92 c0 0.82 0.02 1.46 0.08 1.88 c0.08 0.5 0.28 0.66 1.16 0.64 l1.88 -0.06 c1.44 -0.06 2.4 -0.34 2.9 -0.88 c0.32 -0.36 0.76 -1.08 1.32 -2.14 l0.14 0.04 l-0.74 3.3 l-10.52 0 l0 -0.16 l0.82 -0.06 c0.8 -0.06 0.94 -0.14 1.04 -0.6 c0.06 -0.3 0.08 -0.96 0.08 -1.96 l0 -7.8 c0 -1 -0.02 -1.66 -0.08 -1.96 c-0.1 -0.46 -0.22 -0.54 -1.04 -0.6 z M197.72000000000003 7.42 c0 -0.22 -0.34 -0.4 -1.04 -0.52 l-0.86 -0.14 l0 -0.12 l4.8 0 l0 0.12 l-0.62 0.1 c-0.54 0.08 -0.94 0.24 -1.16 0.48 c-0.24 0.26 -0.64 0.86 -1.2 1.8 l-2.6 4.46 l0 3.62 c0 1 0.02 1.66 0.08 1.96 c0.1 0.46 0.24 0.54 1.04 0.6 l0.82 0.06 l0 0.16 l-5.72 0 l0 -0.16 l0.82 -0.06 c0.8 -0.06 0.94 -0.14 1.04 -0.6 c0.06 -0.3 0.08 -0.96 0.08 -1.96 l0 -1.84 c0 -0.62 -0.02 -1.04 -0.06 -1.28 c-0.06 -0.24 -0.2 -0.58 -0.44 -1 l-2.44 -4.42 c-0.46 -0.82 -0.78 -1.32 -0.94 -1.46 c-0.2 -0.18 -0.54 -0.3 -1.02 -0.34 l-0.9 -0.08 l0 -0.16 l6.38 0 l0 0.16 l-0.82 0.06 c-0.94 0.08 -1.2 0.18 -1.2 0.48 c0 0.22 0.16 0.6 0.46 1.16 l2.58 4.68 l0.08 0 l1.6 -2.88 c0.82 -1.5 1.24 -2.46 1.24 -2.88 z M206.36 19.72 l0.82 0.16 l0 0.12 l-4.8 0 l0 -0.12 l0.56 -0.12 c0.66 -0.14 1.1 -0.34 1.3 -0.56 s0.48 -0.82 0.86 -1.8 l3.52 -9.4 l-0.26 -0.6 l0.02 -0.08 c0.68 -0.34 1.18 -0.72 1.5 -1.1 l0.1 0.02 l4.1 11.74 c0.28 0.78 0.5 1.24 0.68 1.42 c0.16 0.18 0.52 0.3 1.08 0.36 l0.72 0.08 l0 0.16 l-6 0 l0 -0.16 l0.78 -0.08 c0.78 -0.08 1.16 -0.24 1.16 -0.46 s-0.06 -0.5 -0.2 -0.84 l-1.28 -3.68 l-4.44 0 l-0.3 0.92 c-0.66 1.96 -0.98 3.1 -0.98 3.42 c0 0.28 0 0.4 1.06 0.6 z M210.92000000000002 14.52 l-1.4 -4.04 c-0.34 -0.98 -0.6 -1.66 -0.76 -2.08 l-2.04 5.98 l4.12 0 z M217.14000000000001 6.92 l-0.58 -0.02 l0 -0.16 c1.9 -0.12 3.32 -0.18 4.26 -0.18 c4.38 0 6.4 1.42 6.4 3.68 c0 1.2 -0.54 2.18 -1.62 2.92 c-1.1 0.76 -2.5 1.14 -4.22 1.12 l0 -0.12 c2.62 -0.3 3.92 -1.58 3.92 -3.8 c0 -2.14 -1.54 -3.54 -4.9 -3.56 c-0.04 0.5 -0.06 1.24 -0.06 2.24 l0 8.18 c0 1 0.02 1.66 0.08 1.96 c0.08 0.46 0.24 0.54 1.22 0.6 l1.04 0.06 l0 0.16 l-6.12 0 l0 -0.16 l0.82 -0.06 c0.8 -0.06 0.94 -0.14 1.04 -0.6 c0.06 -0.3 0.08 -0.96 0.08 -1.96 l0 -7.7 c0 -0.98 -0.02 -1.64 -0.08 -1.96 c-0.08 -0.48 -0.26 -0.62 -1.28 -0.64 z M228.84 6.92 l-0.58 -0.02 l0 -0.16 c1.9 -0.12 3.32 -0.18 4.26 -0.18 c4.38 0 6.4 1.42 6.4 3.68 c0 1.2 -0.54 2.18 -1.62 2.92 c-1.1 0.76 -2.5 1.14 -4.22 1.12 l0 -0.12 c2.62 -0.3 3.92 -1.58 3.92 -3.8 c0 -2.14 -1.54 -3.54 -4.9 -3.56 c-0.04 0.5 -0.06 1.24 -0.06 2.24 l0 8.18 c0 1 0.02 1.66 0.08 1.96 c0.08 0.46 0.24 0.54 1.22 0.6 l1.04 0.06 l0 0.16 l-6.12 0 l0 -0.16 l0.82 -0.06 c0.8 -0.06 0.94 -0.14 1.04 -0.6 c0.06 -0.3 0.08 -0.96 0.08 -1.96 l0 -7.7 c0 -0.98 -0.02 -1.64 -0.08 -1.96 c-0.08 -0.48 -0.26 -0.62 -1.28 -0.64 z"/></g></svg>